<svg xmlns="http://www.w3.org/2000/svg" viewBox="0 0 504.123 504.123" style="enable-background:new 0 0 504.123 504.123" xml:space="preserve"><linearGradient id="a" gradientUnits="userSpaceOnUse" x1="-23.321" y1="623.585" x2="-8.599" y2="621.654" gradientTransform="matrix(7.8769 0 0 -7.8769 364.065 4969.677)"><stop offset=".012" style="stop-color:#e0b386"/><stop offset=".519" style="stop-color:#da498c"/><stop offset="1" style="stop-color:#961484"/></linearGradient><path style="fill:url(#a)" d="M246.767 70.436c0-31.831 21.205-58.691 50.278-67.261A70.04 70.04 0 0 0 277.187.308c-38.731 0-70.128 31.397-70.128 70.128 0 38.739 31.397 70.136 70.128 70.136 6.9 0 13.572-1.016 19.858-2.867-29.074-8.562-50.278-35.43-50.278-67.269z"/><linearGradient id="b" gradientUnits="userSpaceOnUse" x1="-5.122" y1="574.251" x2="-19.847" y2="576.181" gradientTransform="matrix(7.8769 0 0 -7.8769 364.065 4969.677)"><stop offset=".012" style="stop-color:#e0b386"/><stop offset=".519" style="stop-color:#da498c"/><stop offset="1" style="stop-color:#961484"/></linearGradient><path style="fill:url(#b)" d="M257.322 433.665c0 31.831-21.205 58.699-50.278 67.261a70.095 70.095 0 0 0 19.866 2.867c38.723 0 70.12-31.397 70.12-70.128 0-38.739-31.397-70.136-70.12-70.136-6.9 0-13.572 1.016-19.866 2.867 29.073 8.57 50.278 35.43 50.278 67.269z"/><linearGradient id="c" gradientUnits="userSpaceOnUse" x1="-3.212" y1="622.794" x2="5.832" y2="611.018" gradientTransform="matrix(7.8769 0 0 -7.8769 364.065 4969.677)"><stop offset=".012" style="stop-color:#e0b386"/><stop offset=".519" style="stop-color:#da498c"/><stop offset="1" style="stop-color:#961484"/></linearGradient><path style="fill:url(#c)" d="M376.736 119.903c22.496-22.496 56.501-26.506 83.102-12.012a69.682 69.682 0 0 0-11.997-16.061c-27.404-27.404-71.798-27.404-99.194 0-27.388 27.388-27.388 71.79 0 99.178a69.846 69.846 0 0 0 16.069 12.012c-14.494-26.608-10.5-60.612 12.02-83.117z"/><linearGradient id="d" gradientUnits="userSpaceOnUse" x1="-25.229" y1="575.045" x2="-34.274" y2="586.816" gradientTransform="matrix(7.8769 0 0 -7.8769 364.065 4969.677)"><stop offset=".012" style="stop-color:#e0b386"/><stop offset=".519" style="stop-color:#da498c"/><stop offset="1" style="stop-color:#961484"/></linearGradient><path style="fill:url(#d)" d="M127.352 384.198c-22.496 22.512-56.501 26.514-83.109 12.02a70.153 70.153 0 0 0 12.012 16.061c27.388 27.388 71.79 27.388 99.186 0 27.388-27.396 27.388-71.782.016-99.178a70.333 70.333 0 0 0-16.085-12.012c14.494 26.615 10.508 60.597-12.02 83.109z"/><linearGradient id="e" gradientUnits="userSpaceOnUse" x1="10.445" y1="608.017" x2="8.515" y2="593.295" gradientTransform="matrix(7.8769 0 0 -7.8769 364.065 4969.677)"><stop offset=".012" style="stop-color:#e0b386"/><stop offset=".519" style="stop-color:#da498c"/><stop offset="1" style="stop-color:#961484"/></linearGradient><path style="fill:url(#e)" d="M433.647 246.777c31.831 0 58.699 21.205 67.269 50.271a70.326 70.326 0 0 0 2.867-19.858c-.008-38.747-31.397-70.136-70.136-70.128-38.739-.016-70.128 31.397-70.128 70.128a70.041 70.041 0 0 0 2.859 19.858c8.578-29.066 35.438-50.287 67.269-50.271z"/><linearGradient id="f" gradientUnits="userSpaceOnUse" x1="-38.888" y1="589.82" x2="-36.957" y2="604.542" gradientTransform="matrix(7.8769 0 0 -7.8769 364.065 4969.677)"><stop offset=".012" style="stop-color:#e0b386"/><stop offset=".519" style="stop-color:#da498c"/><stop offset="1" style="stop-color:#961484"/></linearGradient><path style="fill:url(#f)" d="M70.434 257.332c-31.831 0-58.691-21.205-67.261-50.271a70.04 70.04 0 0 0-2.867 19.858c0 38.723 31.397 70.12 70.128 70.12 38.739 0 70.128-31.397 70.136-70.12 0-6.9-1.016-13.572-2.867-19.858-8.57 29.066-35.431 50.271-67.269 50.271z"/><linearGradient id="g" gradientUnits="userSpaceOnUse" x1="9.652" y1="587.908" x2="-2.12" y2="578.864" gradientTransform="matrix(7.8769 0 0 -7.8769 364.065 4969.677)"><stop offset=".012" style="stop-color:#e0b386"/><stop offset=".519" style="stop-color:#da498c"/><stop offset="1" style="stop-color:#961484"/></linearGradient><path style="fill:url(#g)" d="M384.187 376.738c22.496 22.504 26.514 56.501 12.012 83.117a70.82 70.82 0 0 0 16.077-12.012c27.396-27.404 27.396-71.79-.008-99.186-27.38-27.404-71.79-27.388-99.178-.008a69.771 69.771 0 0 0-12.02 16.069c26.608-14.493 60.613-10.492 83.117 12.02z"/><linearGradient id="h" gradientUnits="userSpaceOnUse" x1="-38.099" y1="609.925" x2="-26.323" y2="618.97" gradientTransform="matrix(7.8769 0 0 -7.8769 364.065 4969.677)"><stop offset=".012" style="stop-color:#e0b386"/><stop offset=".519" style="stop-color:#da498c"/><stop offset="1" style="stop-color:#961484"/></linearGradient><path style="fill:url(#h)" d="M119.893 127.371c-22.504-22.504-26.522-56.501-12.012-83.102a69.936 69.936 0 0 0-16.077 11.997c-27.388 27.388-27.388 71.79.008 99.194 27.396 27.38 71.79 27.38 99.178 0a70.006 70.006 0 0 0 12.012-16.077c-26.6 14.501-60.589 10.5-83.109-12.012z"/><linearGradient id="i" gradientUnits="userSpaceOnUse" x1="-34.436" y1="615.729" x2="-20.719" y2="621.419" gradientTransform="matrix(7.8769 0 0 -7.8769 364.065 4969.677)"><stop offset=".012" style="stop-color:#e0b386"/><stop offset=".519" style="stop-color:#da498c"/><stop offset="1" style="stop-color:#961484"/></linearGradient><path style="fill:url(#i)" d="M156.67 97.415c-15.919-27.561-10.98-61.44 9.917-83.385a69.705 69.705 0 0 0-18.637 7.436c-33.548 19.369-45.04 62.259-25.679 95.799 19.377 33.564 62.275 45.04 95.807 25.679a70.56 70.56 0 0 0 15.777-12.414c-29.466 7.12-61.265-5.538-77.185-33.115z"/><linearGradient id="j" gradientUnits="userSpaceOnUse" x1="5.995" y1="582.104" x2="-7.722" y2="576.414" gradientTransform="matrix(7.8769 0 0 -7.8769 364.065 4969.677)"><stop offset=".012" style="stop-color:#e0b386"/><stop offset=".519" style="stop-color:#da498c"/><stop offset="1" style="stop-color:#961484"/></linearGradient><path style="fill:url(#j)" d="M347.434 406.702c15.919 27.569 10.988 61.432-9.909 83.377a69.76 69.76 0 0 0 18.629-7.436c33.54-19.361 45.032-62.259 25.671-95.799-19.361-33.556-62.251-45.04-95.799-25.679a70.494 70.494 0 0 0-15.77 12.414c29.451-7.12 61.251 5.554 77.178 33.123z"/><linearGradient id="k" gradientUnits="userSpaceOnUse" x1="-16.629" y1="625.098" x2="-2.905" y2="619.423" gradientTransform="matrix(7.8769 0 0 -7.8769 364.065 4969.677)"><stop offset=".012" style="stop-color:#e0b386"/><stop offset=".519" style="stop-color:#da498c"/><stop offset="1" style="stop-color:#961484"/></linearGradient><path style="fill:url(#k)" d="M293.957 75.273c8.239-30.744 35.682-51.208 65.977-51.956a70.049 70.049 0 0 0-18.44-7.916C304.071 5.381 265.6 27.57 255.589 64.993c-10.012 37.408 12.186 75.871 49.593 85.89a69.722 69.722 0 0 0 19.913 2.371c-25.837-15.793-39.385-47.238-31.138-77.981z"/><linearGradient id="l" gradientUnits="userSpaceOnUse" x1="-11.819" y1="572.733" x2="-25.541" y2="578.413" gradientTransform="matrix(7.8769 0 0 -7.8769 364.065 4969.677)"><stop offset=".012" style="stop-color:#e0b386"/><stop offset=".519" style="stop-color:#da498c"/><stop offset="1" style="stop-color:#961484"/></linearGradient><path style="fill:url(#l)" d="M210.139 428.844c-8.239 30.736-35.667 51.216-65.953 51.964a70.247 70.247 0 0 0 18.432 7.908c37.408 10.012 75.878-12.186 85.89-49.585 10.012-37.423-12.17-75.878-49.577-85.898a69.47 69.47 0 0 0-19.929-2.363c25.852 15.778 39.384 47.223 31.137 77.974z"/><linearGradient id="m" gradientUnits="userSpaceOnUse" x1="2.59" y1="619.13" x2="8.28" y2="605.416" gradientTransform="matrix(7.8769 0 0 -7.8769 364.065 4969.677)"><stop offset=".012" style="stop-color:#e0b386"/><stop offset=".519" style="stop-color:#da498c"/><stop offset="1" style="stop-color:#961484"/></linearGradient><path style="fill:url(#m)" d="M406.684 156.689c27.569-15.919 61.456-10.988 83.393 9.901-1.536-6.38-4.017-12.65-7.444-18.629-19.377-33.548-62.259-45.04-95.799-25.663-33.564 19.346-45.04 62.251-25.679 95.799a69.909 69.909 0 0 0 12.414 15.77c-7.105-29.46 5.538-61.275 33.115-77.178z"/><linearGradient id="n" gradientUnits="userSpaceOnUse" x1="-31.032" y1="578.701" x2="-36.721" y2="592.417" gradientTransform="matrix(7.8769 0 0 -7.8769 364.065 4969.677)"><stop offset=".012" style="stop-color:#e0b386"/><stop offset=".519" style="stop-color:#da498c"/><stop offset="1" style="stop-color:#961484"/></linearGradient><path style="fill:url(#n)" d="M97.404 347.436c-27.553 15.919-61.432 10.98-83.385-9.909a70.639 70.639 0 0 0 7.459 18.629c19.354 33.54 62.243 45.032 95.799 25.671 33.548-19.369 45.017-62.251 25.663-95.799a70.283 70.283 0 0 0-12.406-15.77c7.098 29.46-5.545 61.259-33.13 77.178z"/><linearGradient id="o" gradientUnits="userSpaceOnUse" x1="11.96" y1="601.314" x2="6.284" y2="587.597" gradientTransform="matrix(7.8769 0 0 -7.8769 364.065 4969.677)"><stop offset=".012" style="stop-color:#e0b386"/><stop offset=".519" style="stop-color:#da498c"/><stop offset="1" style="stop-color:#961484"/></linearGradient><path style="fill:url(#o)" d="M428.842 293.96c30.72 8.247 51.2 35.682 51.964 65.969a70.218 70.218 0 0 0 7.901-18.44c10.035-37.415-12.17-75.863-49.593-85.882-37.408-10.043-75.871 12.178-85.89 49.577a69.35 69.35 0 0 0-2.371 19.929c15.785-25.86 47.237-39.4 77.989-31.153z"/><linearGradient id="p" gradientUnits="userSpaceOnUse" x1="-40.401" y1="596.515" x2="-34.726" y2="610.236" gradientTransform="matrix(7.8769 0 0 -7.8769 364.065 4969.677)"><stop offset=".012" style="stop-color:#e0b386"/><stop offset=".519" style="stop-color:#da498c"/><stop offset="1" style="stop-color:#961484"/></linearGradient><path style="fill:url(#p)" d="M75.27 210.149c-30.744-8.224-51.224-35.667-51.964-65.953a70.003 70.003 0 0 0-7.924 18.44c-10.027 37.4 12.178 75.855 49.601 85.882 37.4 10.027 75.855-12.17 85.89-49.585 1.788-6.664 2.521-13.359 2.371-19.921-15.793 25.852-47.238 39.384-77.974 31.137z"/><linearGradient id="q" gradientUnits="userSpaceOnUse" x1="-40.134" y1="603.366" x2="-31.099" y2="615.154" gradientTransform="matrix(7.8769 0 0 -7.8769 364.065 4969.677)"><stop offset=".012" style="stop-color:#e0b386"/><stop offset=".519" style="stop-color:#da498c"/><stop offset="1" style="stop-color:#961484"/></linearGradient><path style="fill:url(#q)" d="M92.135 165.826c-27.561-15.911-40.227-47.726-33.091-77.17a69.43 69.43 0 0 0-12.438 15.77c-19.369 33.54-7.869 76.43 25.671 95.799 33.564 19.369 76.453 7.861 95.815-25.679a70.277 70.277 0 0 0 7.452-18.629c-21.961 20.889-55.832 25.828-83.409 9.909z"/><linearGradient id="r" gradientUnits="userSpaceOnUse" x1="11.698" y1="594.464" x2="2.658" y2="582.679" gradientTransform="matrix(7.8769 0 0 -7.8769 364.065 4969.677)"><stop offset=".012" style="stop-color:#e0b386"/><stop offset=".519" style="stop-color:#da498c"/><stop offset="1" style="stop-color:#961484"/></linearGradient><path style="fill:url(#r)" d="M411.977 338.291c27.561 15.919 40.227 47.711 33.107 77.162a69.775 69.775 0 0 0 12.414-15.754c19.361-33.548 7.877-76.438-25.663-95.799-33.548-19.377-76.438-7.877-95.799 25.663a70.23 70.23 0 0 0-7.467 18.629c21.96-20.881 55.831-25.812 83.408-9.901z"/><linearGradient id="s" gradientUnits="userSpaceOnUse" x1="-29.395" y1="620.385" x2="-14.669" y2="622.335" gradientTransform="matrix(7.8769 0 0 -7.8769 364.065 4969.677)"><stop offset=".012" style="stop-color:#e0b386"/><stop offset=".519" style="stop-color:#da498c"/><stop offset="1" style="stop-color:#961484"/></linearGradient><path style="fill:url(#s)" d="M199.938 78.006c-8.231-30.752 5.317-62.196 31.169-77.982a69.766 69.766 0 0 0-19.913 2.363c-37.423 10.027-59.636 48.482-49.609 85.906 10.035 37.4 48.49 59.605 85.906 49.585a70.117 70.117 0 0 0 18.432-7.901c-30.271-.771-57.73-21.219-65.985-51.971z"/><linearGradient id="t" gradientUnits="userSpaceOnUse" x1=".957" y1="577.445" x2="-13.762" y2="575.5" gradientTransform="matrix(7.8769 0 0 -7.8769 364.065 4969.677)"><stop offset=".012" style="stop-color:#e0b386"/><stop offset=".519" style="stop-color:#da498c"/><stop offset="1" style="stop-color:#961484"/></linearGradient><path style="fill:url(#t)" d="M304.166 426.127c8.224 30.736-5.293 62.18-31.145 77.974a70.104 70.104 0 0 0 19.913-2.379c37.408-10.019 59.605-48.482 49.593-85.882-10.035-37.415-48.467-59.628-85.874-49.601a69.644 69.644 0 0 0-18.448 7.924c30.263.74 57.737 21.196 65.961 51.964z"/><linearGradient id="u" gradientUnits="userSpaceOnUse" x1="-9.766" y1="624.828" x2="2.018" y2="615.795" gradientTransform="matrix(7.8769 0 0 -7.8769 364.065 4969.677)"><stop offset=".012" style="stop-color:#e0b386"/><stop offset=".519" style="stop-color:#da498c"/><stop offset="1" style="stop-color:#961484"/></linearGradient><path style="fill:url(#u)" d="M338.289 92.145c15.919-27.561 47.742-40.235 77.17-33.122-4.513-4.758-9.807-8.948-15.746-12.414-33.579-19.361-76.438-7.869-95.807 25.679-19.393 33.54-7.877 76.438 25.663 95.807a70.08 70.08 0 0 0 18.621 7.452c-20.882-21.962-25.821-55.841-9.901-83.402z"/><linearGradient id="v" gradientUnits="userSpaceOnUse" x1="-18.669" y1="573.006" x2="-30.456" y2="582.036" gradientTransform="matrix(7.8769 0 0 -7.8769 364.065 4969.677)"><stop offset=".012" style="stop-color:#e0b386"/><stop offset=".519" style="stop-color:#da498c"/><stop offset="1" style="stop-color:#961484"/></linearGradient><path style="fill:url(#v)" d="M165.815 411.98c-15.911 27.569-47.718 40.227-77.162 33.115a69.919 69.919 0 0 0 15.777 12.406c33.532 19.369 76.422 7.877 95.783-25.671 19.385-33.548 7.869-76.43-25.655-95.791a69.923 69.923 0 0 0-18.645-7.444c20.883 21.945 25.845 55.815 9.902 83.385z"/><linearGradient id="w" gradientUnits="userSpaceOnUse" x1="7.251" y1="614.088" x2="9.196" y2="599.366" gradientTransform="matrix(7.8769 0 0 -7.8769 364.065 4969.677)"><stop offset=".012" style="stop-color:#e0b386"/><stop offset=".519" style="stop-color:#da498c"/><stop offset="1" style="stop-color:#961484"/></linearGradient><path style="fill:url(#w)" d="M426.116 199.949c30.728-8.208 62.18 5.309 77.989 31.161a70.814 70.814 0 0 0-2.387-19.921c-10.019-37.423-48.467-59.605-85.89-49.577-37.423 10.004-59.62 48.475-49.609 85.882 1.804 6.656 4.474 12.839 7.932 18.432.734-30.287 21.206-57.73 51.965-65.977z"/><linearGradient id="x" gradientUnits="userSpaceOnUse" x1="-35.686" y1="583.741" x2="-37.636" y2="598.463" gradientTransform="matrix(7.8769 0 0 -7.8769 364.065 4969.677)"><stop offset=".012" style="stop-color:#e0b386"/><stop offset=".519" style="stop-color:#da498c"/><stop offset="1" style="stop-color:#961484"/></linearGradient><path style="fill:url(#x)" d="M78.004 304.16c-30.752 8.247-62.188-5.293-77.982-31.145a69.954 69.954 0 0 0 2.387 19.921c9.996 37.408 48.451 59.613 85.89 49.593 37.408-10.027 59.589-48.475 49.593-85.898-1.788-6.664-4.513-12.824-7.932-18.44-.756 30.295-21.205 57.73-51.956 65.969z"/><linearGradient id="y" gradientUnits="userSpaceOnUse" x1="-13.557" y1="603.365" x2="-15.108" y2="591.529" gradientTransform="matrix(7.8769 0 0 -7.8769 364.065 4969.677)"><stop offset="0" style="stop-color:#29d3da"/><stop offset=".519" style="stop-color:#07f"/><stop offset=".999" style="stop-color:#064093"/><stop offset="1" style="stop-color:#084698"/></linearGradient><path style="fill:url(#y)" d="M313.453 256.615c0-3.442-.354-6.782-.898-10.067-4.813 29.097-30.027 51.318-60.495 51.318s-55.674-22.213-60.495-51.318c-.551 3.285-.898 6.632-.898 10.067 0 33.91 27.49 61.393 61.393 61.393 33.894 0 61.393-27.483 61.393-61.393z"/><linearGradient id="z" gradientUnits="userSpaceOnUse" x1="-12.696" y1="602.002" x2="-45.856" y2="573.376" gradientTransform="matrix(7.8769 0 0 -7.8769 364.065 4969.677)"><stop offset="0" style="stop-color:#29d3da"/><stop offset=".519" style="stop-color:#07f"/><stop offset=".999" style="stop-color:#064093"/><stop offset="1" style="stop-color:#084698"/></linearGradient><path style="fill:url(#z)" d="M190.675 247.51c0 3.434.347 6.782.898 10.067 4.813-29.105 30.027-51.318 60.495-51.318s55.674 22.205 60.495 51.318c.544-3.285.898-6.64.898-10.067 0-33.902-27.498-61.393-61.393-61.393-33.902 0-61.393 27.49-61.393 61.393z"/></svg>